<svg width="28" height="28" viewBox="0 0 28 28" fill="none" xmlns="http://www.w3.org/2000/svg">
<path d="M14 2.33337C7.55654 2.33337 2.33337 7.55655 2.33337 14.0001C2.33337 20.4436 7.55654 25.6668 14 25.6668C20.4435 25.6668 25.6667 20.4436 25.6667 14.0001C25.6667 7.55655 20.4435 2.33337 14 2.33337ZM14 8.16672C14.644 8.16672 15.1667 8.68939 15.1667 9.33339C15.1667 9.97739 14.644 10.5001 14 10.5001C13.356 10.5001 12.8334 9.97739 12.8334 9.33339C12.8334 8.68939 13.356 8.16672 14 8.16672ZM12.8334 11.6667C13.0224 11.6667 13.853 11.6667 14 11.6667C14.7362 11.6667 15.2752 12.3306 15.1305 13.0527L14.2555 17.5001H15.1667C15.8107 17.5001 16.3334 18.0227 16.3334 18.6667C16.3334 19.3108 15.8107 19.8334 15.1667 19.8334H14C12.6199 19.8334 11.6515 18.6353 11.9222 17.2808L12.6141 13.9277C12.0856 13.8157 11.6667 13.3957 11.6667 12.8334C11.6667 12.1894 12.1894 11.6667 12.8334 11.6667Z" fill="#C8C8C8"/>
</svg>
