<svg width="28" height="28" viewBox="0 0 28 28" fill="none" xmlns="http://www.w3.org/2000/svg">
<path d="M13.9263 2.33374C12.741 2.3196 11.5802 2.71552 10.7574 3.54858L2.67171 11.9063C2.32442 12.2657 2.23117 12.783 2.45377 13.2331L3.50965 15.3682L3.47352 22.1069C3.47352 23.4396 4.5294 24.5 5.84051 24.5H9.5559C10.7178 24.5 11.6677 23.5397 11.6677 22.3649V18.4683C11.6677 17.244 12.6489 16.2519 13.8598 16.2519H14.1372C15.3481 16.2519 16.3294 17.244 16.3294 18.4683V22.3649C16.3294 23.5397 17.2792 24.5 18.4411 24.5H22.1565C23.4676 24.5 24.5235 23.4325 24.5235 22.1069L24.4874 15.3682L25.5433 13.2331C25.7682 12.7794 25.6796 12.2292 25.3253 11.8698C25.0223 11.5634 17.8957 4.35809 17.1673 3.62165C16.3224 2.76738 15.1103 2.3467 13.9263 2.33374Z" fill="#C8C8C8"/>
</svg>
